<?xml version="1.0" standalone="no"?>
<!DOCTYPE svg PUBLIC "-//W3C//DTD SVG 20010904//EN"
 "http://www.w3.org/TR/2001/REC-SVG-20010904/DTD/svg10.dtd">
<svg version="1.0" xmlns="http://www.w3.org/2000/svg"
 width="330.000000pt" height="150.000000pt" viewBox="0 0 330.000000 150.000000"
 preserveAspectRatio="xMidYMid meet">

<g transform="translate(0.000000,150.000000) scale(0.100000,-0.100000)"
fill="#000000" stroke="none">
<path d="M289 1078 c-7 -22 -11 -97 -16 -320 l-5 -267 88 1 c49 1 131 -2 182
-7 51 -4 142 -4 202 0 l110 7 0 49 c0 27 -4 49 -10 49 -5 0 -10 -18 -10 -40
l0 -40 -137 0 c-76 0 -195 3 -265 7 l-128 6 0 269 0 268 198 0 c108 0 227 -3
265 -7 l67 -6 0 -33 c0 -18 4 -35 9 -38 9 -6 24 81 15 95 -4 8 -562 14 -565 7z"/>
<path d="M498 888 c8 -8 12 -46 12 -105 0 -76 3 -93 15 -93 12 0 15 15 15 73
l1 72 35 -40 36 -40 31 38 c18 20 35 37 40 37 4 0 7 -31 7 -70 0 -40 4 -70 10
-70 6 0 10 38 10 93 0 59 4 97 12 105 9 9 8 12 -4 12 -9 0 -35 -22 -58 -50
-23 -27 -45 -50 -49 -50 -4 0 -25 22 -47 50 -22 28 -47 49 -58 50 -16 0 -17
-3 -8 -12z"/>
<path d="M853 886 c3 -8 -14 -56 -38 -105 -41 -85 -44 -112 -9 -76 23 22 123
20 140 -2 7 -10 15 -15 18 -12 10 10 -87 209 -102 209 -8 0 -12 -6 -9 -14z
m46 -95 l20 -39 -42 -4 c-23 -3 -44 -3 -46 -1 -7 5 31 83 40 83 5 0 18 -18 28
-39z"/>
<path d="M1030 795 c0 -59 4 -105 9 -105 6 0 11 19 13 43 3 41 4 42 40 45 29
2 38 -1 43 -17 16 -50 75 -94 75 -56 0 8 -7 15 -15 15 -8 0 -21 12 -29 27 -13
25 -12 28 10 46 31 24 32 70 2 91 -15 11 -45 16 -85 16 l-63 0 0 -105z m147
55 c5 -28 -12 -38 -67 -41 l-55 -3 -3 32 -3 33 63 -3 c46 -2 63 -7 65 -18z"/>
<path d="M1280 795 c0 -62 4 -105 10 -105 5 0 22 18 36 40 15 22 30 40 35 40
4 0 17 -15 28 -34 18 -29 39 -46 57 -46 12 0 1 21 -25 49 -43 46 -46 65 -18
103 36 50 40 58 24 58 -8 0 -36 -34 -63 -75 -27 -41 -52 -75 -56 -75 -5 0 -8
34 -8 75 0 43 -4 75 -10 75 -6 0 -10 -42 -10 -105z"/>
<path d="M1520 795 l0 -105 75 0 c60 0 75 3 75 15 0 12 -14 15 -66 15 l-65 0
3 28 c3 24 7 27 46 30 30 2 42 8 42 19 0 13 -9 15 -45 11 l-45 -6 0 34 0 34
60 0 c47 0 60 3 60 15 0 12 -14 15 -70 15 l-70 0 0 -105z"/>
<path d="M1720 885 c0 -10 11 -15 35 -15 l35 0 0 -90 c0 -53 4 -90 10 -90 6 0
10 37 10 90 l0 90 40 0 c29 0 40 4 40 15 0 12 -16 15 -85 15 -69 0 -85 -3 -85
-15z"/>
<path d="M1940 795 c0 -87 3 -105 15 -105 11 0 15 12 15 45 l0 45 46 0 c66 0
84 13 84 60 0 49 -18 60 -99 60 l-61 0 0 -105z m135 45 c0 -23 -5 -25 -52 -30
l-53 -6 0 34 0 33 53 -3 c48 -3 52 -5 52 -28z"/>
<path d="M2170 795 l0 -105 70 0 c56 0 70 3 70 15 0 12 -13 15 -60 15 l-60 0
0 90 c0 53 -4 90 -10 90 -6 0 -10 -42 -10 -105z"/>
<path d="M2430 883 c0 -11 -18 -57 -40 -102 -22 -46 -39 -86 -36 -88 3 -3 15
2 28 11 30 21 126 22 134 1 4 -8 12 -15 20 -15 9 0 -3 34 -34 102 -46 98 -72
131 -72 91z m40 -84 c12 -23 20 -42 18 -44 -5 -4 -88 -13 -88 -9 0 6 44 94 47
94 1 0 12 -18 23 -41z"/>
<path d="M2640 883 c-76 -39 -72 -146 6 -179 42 -18 95 -12 114 12 17 20 7 28
-18 15 -58 -31 -132 5 -132 64 0 58 74 95 130 65 23 -12 35 3 16 19 -26 21
-79 23 -116 4z"/>
<path d="M2840 795 l0 -105 75 0 c60 0 75 3 75 15 0 12 -14 15 -66 15 l-65 0
3 28 c3 24 7 27 46 30 30 2 42 8 42 19 0 13 -9 15 -45 11 l-45 -6 0 34 0 34
60 0 c47 0 60 3 60 15 0 12 -14 15 -70 15 l-70 0 0 -105z"/>
</g>
</svg>
